<svg width="128" height="98" viewBox="0 0 128 98" fill="none" xmlns="http://www.w3.org/2000/svg">
<path d="M108.13 9.02996C99.7766 5.20564 90.9582 2.49254 81.8998 0.959961C80.6603 3.17584 79.5387 5.45569 78.5398 7.78996C68.891 6.33598 59.0787 6.33598 49.4298 7.78996C48.4304 5.45593 47.3089 3.17611 46.0698 0.959961C37.0057 2.50548 28.1815 5.22502 19.8198 9.04996C3.21984 33.61 -1.28016 57.56 0.969836 81.17C10.6912 88.3525 21.5722 93.815 33.1398 97.32C35.7445 93.8168 38.0493 90.1003 40.0298 86.21C36.2682 84.805 32.6375 83.0717 29.1798 81.03C30.0898 80.37 30.9798 79.69 31.8398 79.03C41.9008 83.7614 52.8818 86.2146 63.9998 86.2146C75.1178 86.2146 86.0989 83.7614 96.1598 79.03C97.0298 79.74 97.9198 80.42 98.8198 81.03C95.3555 83.075 91.7182 84.8117 87.9498 86.22C89.9279 90.1085 92.2329 93.8218 94.8398 97.32C106.417 93.8291 117.307 88.3692 127.03 81.18C129.67 53.8 122.52 30.07 108.13 9.02996ZM42.8798 66.65C36.6098 66.65 31.4298 60.96 31.4298 53.96C31.4298 46.96 36.4298 41.22 42.8598 41.22C49.2898 41.22 54.4298 46.96 54.3198 53.96C54.2098 60.96 49.2698 66.65 42.8798 66.65ZM85.1198 66.65C78.8398 66.65 73.6798 60.96 73.6798 53.96C73.6798 46.96 78.6798 41.22 85.1198 41.22C91.5598 41.22 96.6598 46.96 96.5498 53.96C96.4398 60.96 91.5098 66.65 85.1198 66.65Z" fill="white"/>
</svg>
