<svg width="31" height="30" viewBox="0 0 31 30" fill="none" xmlns="http://www.w3.org/2000/svg">
<path d="M8.19454 30C8.08377 30 7.95454 30 7.84377 29.9815C7.56685 29.9446 7.30839 29.8892 7.01301 29.7969C6.49608 29.6308 6.05301 29.3908 5.73916 29.2062C5.03762 28.8 4.31762 28.3015 3.5607 27.6738C3.22839 27.3969 2.89608 27.1015 2.58224 26.8062L2.32377 26.5477C2.13916 26.3815 1.973 26.1969 1.84377 25.9938C1.60377 25.6246 1.4007 25.1446 1.38224 24.5169C1.36377 24.3138 1.34531 24.1108 1.34531 23.8892C1.34531 23.4462 1.36377 22.9662 1.43762 22.5046C1.56685 21.5446 1.8807 20.6954 2.1207 20.0492C2.13916 19.9938 2.15762 19.9385 2.17608 19.8831C2.10224 19.7169 2.04685 19.5323 1.973 19.3477C1.6407 18.3877 1.41916 17.3169 1.30839 16.2462C1.19762 15.12 1.23454 13.9754 1.4007 12.8492C1.43762 12.6092 1.47454 12.3692 1.52993 12.1477C1.08685 11.5015 0.533005 10.5785 0.182236 9.50769V9.48923C0.108389 9.26769 -0.0762259 8.71385 0.0345433 8.01231C0.0714664 7.75385 0.126851 7.49538 0.219159 7.21846C0.385313 6.70154 0.625313 6.27692 0.809928 5.96308C1.21608 5.26154 1.71454 4.56 2.32377 3.80308C2.6007 3.47077 2.87762 3.13846 3.17301 2.84308L3.43147 2.58462C3.5607 2.43692 3.70839 2.30769 3.87454 2.19692C4.24377 1.92 4.7607 1.68 5.46224 1.66154C5.68377 1.64308 5.92377 1.62462 6.16377 1.62462H6.18224C6.64377 1.62462 7.14224 1.66154 7.62224 1.73538C8.3607 1.84615 9.02531 2.04923 9.61608 2.27077C10.0038 2.10462 10.4099 1.95692 10.8345 1.80923C11.8315 1.47692 12.9022 1.25538 13.973 1.18154C15.0992 1.08923 16.2438 1.14462 17.333 1.32923C17.5915 1.36615 17.8499 1.42154 18.1084 1.47692C18.9761 0.886154 19.7699 0.461538 20.6007 0.203077H20.6192C20.8038 0.129231 21.2099 0 21.7453 0C21.8561 0 21.9853 0 22.0961 0.0184615C22.373 0.0553846 22.6315 0.110769 22.9268 0.203077C23.4438 0.369231 23.8869 0.609231 24.2007 0.793846C24.9022 1.2 25.6222 1.69846 26.3792 2.32615C26.7115 2.60308 27.0438 2.89846 27.3576 3.19385L27.6161 3.45231C27.7453 3.56308 27.8745 3.69231 27.9669 3.84C28.2992 4.26462 28.5576 4.87385 28.5761 5.72308C28.5945 6.01846 28.5945 6.33231 28.5761 6.64615C28.5392 7.32923 28.4468 7.97539 28.2807 8.56615C28.1515 9.00923 28.0038 9.45231 27.8376 9.89538C28.1699 10.7262 28.4099 11.5754 28.5761 12.4431C28.9084 14.2708 28.8715 16.1538 28.4653 17.9631C28.7053 18.3138 28.9269 18.6462 29.1115 18.9785C29.4253 19.5323 29.6838 20.1046 29.8684 20.6954C29.9422 20.9169 30.1084 21.4708 29.9976 22.2092C29.9607 22.4677 29.8869 22.7077 29.7945 22.9846C29.4622 23.9262 28.9453 24.7015 28.4838 25.3477C27.9853 26.0492 27.413 26.7323 26.8222 27.36L26.6007 27.5815C26.4715 27.7292 26.3238 27.8585 26.1576 27.9877C25.7884 28.2646 25.2715 28.4862 24.5699 28.5231C24.3484 28.5415 24.1084 28.56 23.8684 28.56H23.8499C23.3515 28.56 22.853 28.5231 22.3361 28.4308C21.5053 28.3015 20.7669 28.0431 20.1022 27.7846C19.7515 27.9323 19.3822 28.0615 19.0315 28.1723C17.9976 28.4862 16.9084 28.6892 15.8192 28.7446C14.693 28.8185 13.5484 28.7262 12.4407 28.5231C12.3115 28.5046 12.1638 28.4677 12.0345 28.4492C11.0745 29.1323 10.2253 29.5754 9.33916 29.8708H9.3207C9.13608 29.8523 8.72993 30 8.19454 30ZM4.53916 24.7569L6.49608 25.44C6.66224 24.96 6.6807 24.4431 6.56993 23.9631C6.56993 24 6.56993 24.0554 6.58839 24.0923C6.58839 24.1477 6.60685 24.2215 6.60685 24.2954C6.58839 23.9262 6.45916 23.4462 6.12685 23.0031C5.99762 22.8369 5.84993 22.6892 5.68377 22.56L5.77608 22.6338L5.94224 22.8C5.79454 22.6523 5.62839 22.5046 5.44377 22.3754L4.53916 24.7569ZM22.8345 23.8892C22.6868 24.0369 22.5392 24.1846 22.4099 24.3877L24.6069 25.2369V23.1877C24.4038 23.1877 24.2007 23.2062 24.0161 23.2615C24.053 23.2615 24.0899 23.2615 24.1269 23.2615C24.1822 23.2615 24.2561 23.2431 24.3299 23.2431C23.9976 23.2615 23.5545 23.3723 23.1484 23.6308C22.9269 23.7785 22.7422 23.9446 22.5761 24.1662L22.6499 24.0738L22.8345 23.8892ZM6.60685 23.4092C6.69916 23.4831 6.79147 23.5569 6.88377 23.6492C7.36377 24.0554 7.80685 24.3692 8.21301 24.6092C8.47147 24.48 8.76685 24.2954 9.0807 24.0554C9.17301 24 9.24685 23.9262 9.33916 23.8523C9.39454 23.8154 9.43147 23.76 9.48685 23.7231C9.50531 23.7046 9.54224 23.6677 9.5607 23.6492L10.7053 22.4862L12.2561 23.0215C12.3115 23.04 12.3668 23.0585 12.4038 23.0769C12.7361 23.1877 13.0684 23.2615 13.4007 23.3354C14.0838 23.4646 14.8038 23.52 15.5053 23.4646C16.1699 23.4277 16.853 23.2985 17.4807 23.1138C17.7945 23.0215 18.1084 22.9108 18.4038 22.7631C18.5515 22.7077 18.6992 22.6338 18.8284 22.56C19.1976 22.3754 19.6222 22.2646 20.0469 22.2646C20.7115 22.2646 21.2099 22.5046 21.4499 22.6338C21.5238 22.6708 21.5976 22.7077 21.6899 22.7262C22.1515 22.9108 22.6869 23.1323 23.1669 23.2062C23.2407 23.2246 23.333 23.2246 23.4069 23.2431C23.6838 22.9292 23.9422 22.5969 24.1822 22.2646C24.3299 22.0615 24.4776 21.8585 24.6069 21.6554C24.5884 21.6185 24.5699 21.5815 24.533 21.5262C24.4038 21.3046 24.2561 21.0831 24.0715 20.8062C24.0161 20.7138 23.9422 20.64 23.8684 20.5477C23.8315 20.5108 23.813 20.4738 23.7761 20.4369C23.0192 19.6985 22.7607 18.6462 23.1115 17.6492C23.1299 17.5938 23.1484 17.5385 23.1669 17.5015C23.5915 16.1723 23.6653 14.7508 23.4253 13.3846C23.2961 12.7385 23.1115 12.0923 22.8345 11.4831C22.8161 11.4277 22.7792 11.3723 22.7607 11.3169C22.1515 10.1908 22.4099 9.23077 22.6315 8.76923C22.7238 8.58462 22.7976 8.38154 22.8715 8.19692C23.0192 7.84615 23.1299 7.47692 23.2407 7.14462C23.2776 6.97846 23.3145 6.81231 23.333 6.60923C23.2407 6.53538 23.1484 6.46154 23.0561 6.36923C22.5576 5.96308 22.133 5.64923 21.7269 5.40923C21.4684 5.55692 21.173 5.74154 20.8407 5.96308C20.7484 6.03692 20.6561 6.11077 20.5638 6.18462C20.5453 6.20308 20.5084 6.22154 20.4899 6.25846C19.9915 6.73846 19.3269 6.99692 18.6438 6.99692C18.3115 6.99692 17.9976 6.94154 17.6838 6.81231C17.6099 6.79385 17.5361 6.75692 17.4622 6.73846C17.1299 6.64615 16.7976 6.55385 16.4468 6.49846C15.7638 6.38769 15.0438 6.35077 14.3422 6.40615C13.6776 6.46154 13.013 6.59077 12.3853 6.79385C12.0715 6.88615 11.7761 7.01538 11.4807 7.14462C11.333 7.2 11.2038 7.27385 11.0561 7.34769L10.9822 7.38462C10.5945 7.60615 10.133 7.71692 9.68993 7.71692C9.28377 7.71692 8.87762 7.62462 8.48993 7.44C8.39762 7.40308 8.32377 7.36615 8.23147 7.32923C7.78839 7.14462 7.25301 6.94154 6.79147 6.88615C6.71762 6.86769 6.64377 6.86769 6.58839 6.84923C6.51454 6.94154 6.4407 7.03385 6.36685 7.10769C5.9607 7.60615 5.64685 8.03077 5.40685 8.45538C5.53608 8.71385 5.7207 8.99077 5.94224 9.32308C5.99762 9.41539 6.07147 9.50769 6.14531 9.58154C6.18224 9.63692 6.23762 9.67385 6.27454 9.72923L7.34531 10.8554L6.88377 12.3323C6.84685 12.4246 6.82839 12.5169 6.79147 12.6092C6.69916 12.9415 6.62531 13.2923 6.56993 13.6431C6.45916 14.3446 6.4407 15.0462 6.51454 15.7662C6.56993 16.4308 6.71762 17.0954 6.93916 17.7231C7.04993 18.0369 7.17916 18.3323 7.30839 18.6277C7.32685 18.6646 7.34531 18.7015 7.36377 18.7385C7.75147 19.5323 7.75147 20.4185 7.34531 21.2123C7.30839 21.2862 7.27147 21.36 7.25301 21.4338C7.17916 21.6185 7.08685 21.8031 7.01301 21.9877C6.86531 22.3938 6.6807 22.8738 6.62531 23.2985C6.62531 23.3169 6.60685 23.3723 6.60685 23.4092ZM23.9792 7.16308C24.1269 7.31077 24.293 7.45846 24.4961 7.60615L25.4007 5.22462L23.4438 4.54154C23.2776 5.02154 23.2592 5.53846 23.3699 6.01846C23.3699 6 23.3699 5.98154 23.3699 5.96308C23.3699 5.90769 23.3699 5.81538 23.3699 5.72308V5.70462C23.3699 5.98154 23.4622 6.44308 23.7576 6.88615C23.9053 7.08923 24.0715 7.27385 24.2745 7.44L24.1822 7.36615L23.9792 7.16308ZM5.40685 4.85538V6.90462C5.60993 6.90462 5.813 6.88615 5.99762 6.83077C5.9607 6.83077 5.92377 6.83077 5.88685 6.83077C5.83147 6.83077 5.75762 6.84923 5.68377 6.84923C6.01608 6.83077 6.45916 6.72 6.86531 6.46154C7.08685 6.31385 7.27147 6.14769 7.43762 5.92615L7.36377 6.01846L7.19762 6.20308C7.34531 6.05538 7.493 5.88923 7.62224 5.70462L5.40685 4.85538Z" fill="black"/>
<path d="M10.3915 16.32L10.5207 21.5446L9.22841 20.4923C7.78841 22.8369 7.32687 25.1077 8.00995 26.7877L8.24995 27.3785L7.65918 27.12C6.31149 26.5292 5.09303 25.6985 4.07764 24.6277L4.02226 24.5723L4.0038 24.48C3.92995 23.8339 3.96687 23.1323 4.13303 22.4123V22.3939C4.37303 21.4892 4.7238 20.5846 5.16687 19.68C5.4438 19.1077 5.7761 18.5354 6.14533 17.9815L5.01918 17.0585L10.3915 16.32Z" fill="#B4762C"/>
<path d="M19.5484 13.68L19.4192 8.4554L20.7115 9.50771C22.1515 7.16309 22.613 4.89232 21.93 3.21232L21.69 2.62155L22.2807 2.88001C23.6284 3.47078 24.8469 4.30155 25.8623 5.37232L25.9177 5.42771L25.9361 5.52001C26.01 6.16617 25.973 6.8677 25.8069 7.58771V7.60617C25.5669 8.51078 25.2161 9.4154 24.773 10.32C24.4961 10.8923 24.1638 11.4646 23.7946 12.0185L24.9207 12.9416L19.5484 13.68Z" fill="#B4762C"/>
<path d="M16.3361 19.4585L21.5607 19.3293L20.5084 20.6216C22.853 22.0616 25.1238 22.5231 26.8038 21.84L27.3946 21.6L27.1361 22.1908C26.5454 23.5385 25.7146 24.7569 24.6438 25.7723L24.5884 25.8277L24.4961 25.8462C23.85 25.92 23.1484 25.8831 22.4284 25.7169H22.41C21.5054 25.4769 20.6007 25.1262 19.6961 24.6831C19.1238 24.4062 18.5515 24.0739 17.9977 23.7046L17.0746 24.8308L16.3361 19.4585Z" fill="#B4762C"/>
<path d="M13.6776 10.6339L8.45302 10.7631L9.50533 9.47078C7.16071 8.03078 4.88994 7.56924 3.20994 8.25232L2.63763 8.49232L2.8961 7.90155C3.48686 6.55386 4.31763 5.3354 5.3884 4.32001L5.44379 4.26463L5.5361 4.24617C6.18225 4.17232 6.88379 4.20924 7.60379 4.3754H7.62225C8.52687 4.6154 9.43148 4.96617 10.3361 5.40924C10.9084 5.68617 11.4807 6.01847 12.0346 6.3877L12.9576 5.26155L13.6776 10.6339Z" fill="#B4762C"/>
<path d="M15.0253 26.0862C21.1939 26.0862 26.1945 21.0855 26.1945 14.9169C26.1945 8.74835 21.1939 3.74771 15.0253 3.74771C8.85671 3.74771 3.85608 8.74835 3.85608 14.9169C3.85608 21.0855 8.85671 26.0862 15.0253 26.0862Z" fill="#D98F40"/>
<path d="M10.9453 10.9846C10.2992 10.6892 9.81917 10.3938 9.33917 10.0431C8.60071 9.52616 7.91763 8.95385 7.34532 8.34462C5.94225 6.92308 5.20378 5.46462 5.40686 4.26462L4.98225 4.72616C3.96686 5.79693 2.61917 7.68 2.60071 8.49231C2.61917 8.58462 2.61917 8.58462 2.61917 8.58462C2.80378 9.21231 3.09917 9.84 3.52378 10.4492V10.4677C4.07763 11.3538 5.16686 12.8123 9.04379 14.5108L8.36071 15.8031L13.5853 14.4L11.7207 9.50769L10.9453 10.9846Z" fill="white"/>
<path d="M19.0684 19.1077C19.7146 19.4031 20.1946 19.6985 20.6746 20.0492C21.413 20.5662 22.0961 21.1385 22.6684 21.7477C24.0715 23.1692 24.8099 24.6277 24.6069 25.8277L25.0315 25.3846C26.0469 24.3139 27.3946 22.4308 27.413 21.6185C27.3946 21.5262 27.3946 21.5262 27.3946 21.5262C27.2099 20.8985 26.9146 20.2708 26.4899 19.6616V19.6431C25.9361 18.7569 24.8469 17.2985 20.9699 15.6L21.653 14.3077L16.4284 15.7108L18.3115 20.5477L19.0684 19.1077Z" fill="white"/>
<path d="M19.1976 10.9477C19.493 10.3015 19.7884 9.82155 20.1392 9.34155C20.6561 8.60309 21.2284 7.92001 21.8376 7.3477C23.2592 5.94463 24.7176 5.20617 25.9176 5.40924L25.4746 4.98463C24.4038 3.96924 22.5207 2.62155 21.7084 2.60309C21.6161 2.62155 21.6161 2.62155 21.6161 2.62155C20.9884 2.80617 20.3607 3.10155 19.7515 3.52617H19.733C18.8469 4.08001 17.3884 5.16924 15.69 9.04617L14.3976 8.36309L15.8007 13.5877L20.6746 11.7416L19.1976 10.9477Z" fill="white"/>
<path d="M10.7422 19.0523C10.4468 19.6985 10.1514 20.1785 9.80068 20.6585C9.28376 21.3969 8.71145 22.08 8.10222 22.6523C6.68068 24.0554 5.22222 24.7939 4.02222 24.5908L4.46529 25.0154C5.53606 26.0308 7.41914 27.3785 8.23145 27.3969C8.32376 27.3785 8.32376 27.3785 8.32376 27.3785C8.95145 27.1939 9.57914 26.8985 10.1884 26.4739H10.2068C11.093 25.92 12.5514 24.8308 14.2499 20.9539L15.5422 21.6369L14.1391 16.4123L9.28376 18.2585L10.7422 19.0523Z" fill="white"/>
</svg>
